<?xml version="1.0" encoding="utf-8"?>
<!-- Generator: Adobe Illustrator 27.0.1, SVG Export Plug-In . SVG Version: 6.00 Build 0)  -->
<svg version="1.1" id="Layer_1" xmlns="http://www.w3.org/2000/svg" xmlns:xlink="http://www.w3.org/1999/xlink" x="0px" y="0px"
	 viewBox="0 0 1920 1080" style="enable-background:new 0 0 1920 1080;" xml:space="preserve">
<style type="text/css">
	.st0{fill:none;}
	.st1{fill-rule:evenodd;clip-rule:evenodd;fill:#3C3C4C;}
	.st2{fill-rule:evenodd;clip-rule:evenodd;fill:#C7794A;}
	.st3{fill:#3C3C4C;}
	.st4{font-family:'Gilroy-Regular';}
	.st5{font-size:64.9603px;}
</style>
<rect x="106.14" y="-215.74" class="st0" width="1657.05" height="1625.74"/>
<path class="st1" d="M948.39,565.35c15.99,0,30.43-3.68,43.33-11.03c12.9-7.35,23.02-17.6,30.37-30.76
	c7.35-13.16,11.03-28.12,11.03-44.88c0-16.76-3.67-31.72-11.03-44.88c-7.35-13.15-17.47-23.41-30.37-30.76
	c-12.9-7.35-27.34-11.03-43.33-11.03h-118.7c11.44-14.33,25.67-26.07,42.68-35.21c22.57-12.12,47.91-18.18,76.02-18.18
	c28.11,0,53.39,6.06,75.83,18.18c22.44,12.12,40.11,28.83,53,50.11c12.9,21.28,19.35,45.2,19.35,71.77
	c0,26.57-6.45,50.49-19.35,71.77c-12.9,21.28-30.57,37.98-53,50.11c-22.44,12.12-47.72,18.18-75.83,18.18
	c-28.12,0-53.46-6.06-76.02-18.18c-22.57-12.13-40.24-28.83-53.01-50.11c-12.77-21.28-19.15-45.2-19.15-71.77
	c0-18.31,3.03-35.36,9.09-51.15c4.87-12.69,16.37-20.69,29.96-20.85l61.08-0.73c-10.67,7.07-19.22,16.35-25.65,27.86
	c-7.35,13.16-11.03,28.12-11.03,44.88c0,16.77,3.68,31.72,11.03,44.88c7.35,13.15,17.48,23.41,30.37,30.76
	C917.95,561.68,932.39,565.35,948.39,565.35z"/>
<path class="st1" d="M707.84,581.68l-0.31-130.08l-75.65,127.07c-2.58,4.34-6.92,6.8-11.97,6.8h-12.5c-5,0-9.3-2.42-11.9-6.69
	l-64.2-105.54l-11.04-18.15l-54.08-88.9c-3.24-5.32-4.73-10.66-4.73-16.89v-6.03h33.48c11.72,0,21.79,5.69,27.84,15.73l91.89,152.57
	l90.38-152.38c6.02-10.15,16.16-15.92,27.95-15.92h32.95l0.78,270.83h-26.39C722.46,614.1,707.88,599.55,707.84,581.68
	L707.84,581.68z M520.27,491.18c0-6.21-1.49-11.54-4.71-16.86l-54.1-89.18V614.1h26.31c17.9,0,32.5-14.6,32.5-32.5V491.18z"/>
<path class="st1" d="M1255.82,562.65c27.08,0,48.68-7.55,64.81-22.63c16.12-15.09,24.18-35.53,24.18-61.33
	c0-25.79-8.06-46.23-24.18-61.32c-16.12-15.09-37.72-22.63-64.81-22.63h-57.26h-30.18c-17.9,0-32.5-14.6-32.5-32.5v-18.96h123.03
	c29.41,0,55.39,5.61,77.96,16.83c22.57,11.22,40.11,27.02,52.62,47.39c12.51,20.38,18.76,44.11,18.76,71.19
	c0,27.08-6.25,50.81-18.76,71.19c-12.51,20.38-30.05,36.18-52.62,47.4c-22.57,11.22-48.56,16.83-77.96,16.83h-123.03V408.66h30.18
	c17.9,0,32.5,14.6,32.5,32.5v121.49H1255.82z"/>
<path class="st2" d="M645.91,653.45l19.46,55.3h5.22l19.46-55.3h-5.09l-10.95,31.14h0l-4.1,11.67c-0.29,0.83-1.04,1.37-1.93,1.37
	c-0.88,0-1.63-0.53-1.93-1.37l-2.49-7.09l-0.03-0.09l-1.58-4.49l-10.97-31.14H645.91L645.91,653.45z"/>
<path class="st2" d="M1224.15,652.98h-4.79v33.81c0,9.67-7.95,17.65-17.62,17.65s-17.62-7.98-17.62-17.65v-33.81h-4.79v33.81
	c0,10.09,6.85,18.99,16.57,21.65c1.9,0.52,3.88,0.77,5.85,0.77c1.98,0,3.94-0.25,5.85-0.77c9.72-2.65,16.57-11.56,16.57-21.65
	V652.98L1224.15,652.98z"/>
<path class="st2" d="M1001.4,709.22h4.79v-33.84c0-9.67,7.95-17.62,17.62-17.62c9.67,0,17.62,7.95,17.62,17.62v33.84h4.79v-33.84
	c0-10.08-6.84-18.98-16.56-21.62c-1.91-0.52-3.87-0.79-5.86-0.79c-1.97,0-3.95,0.28-5.86,0.79c-9.72,2.64-16.56,11.54-16.56,21.62
	V709.22L1001.4,709.22z"/>
<path class="st2" d="M1383.08,709.49v-4.65c-1.13,0.16-2.27,0.24-3.42,0.24c-9.94,0-18.83-6.1-22.39-15.36
	c-0.58-1.5-0.39-3.04,0.51-4.37c0.91-1.32,2.29-2.05,3.89-2.05h46.5c0.06-0.73,0.09-1.47,0.09-2.21c0-2-0.21-4-0.63-5.95
	c-2.25-10.63-10.45-19.13-20.98-21.78c-2.29-0.58-4.63-0.86-6.99-0.86c-13.5,0-25.17,9.46-27.97,22.64
	c-0.41,1.96-0.63,3.95-0.63,5.95c0,2.01,0.21,3.99,0.63,5.95c2.8,13.19,14.47,22.64,27.97,22.64
	C1380.8,709.69,1381.94,709.62,1383.08,709.49L1383.08,709.49z M1397.65,678.88h-35.98c-1.6,0-2.98-0.73-3.89-2.05
	c-0.91-1.32-1.09-2.87-0.51-4.37c3.57-9.24,12.46-15.36,22.39-15.36c3.51,0,6.96,0.76,10.14,2.24c5.61,2.62,10.02,7.33,12.25,13.11
	c0.58,1.5,0.4,3.05-0.51,4.37C1400.63,678.15,1399.25,678.88,1397.65,678.88L1397.65,678.88z"/>
<path class="st2" d="M849.32,709.49v-4.65c-1.13,0.16-2.27,0.24-3.42,0.24c-9.94,0-18.83-6.1-22.39-15.36
	c-0.58-1.5-0.39-3.04,0.51-4.37c0.91-1.32,2.29-2.05,3.89-2.05h46.5c0.06-0.73,0.09-1.47,0.09-2.21c0-2-0.21-4-0.63-5.95
	c-2.25-10.63-10.45-19.13-20.98-21.78c-2.29-0.58-4.63-0.86-6.99-0.86c-13.5,0-25.17,9.46-27.97,22.64
	c-0.41,1.96-0.63,3.95-0.63,5.95c0,2.01,0.21,3.99,0.63,5.95c2.8,13.19,14.47,22.64,27.97,22.64
	C847.04,709.69,848.18,709.62,849.32,709.49L849.32,709.49z M863.89,678.88H827.9c-1.6,0-2.98-0.73-3.89-2.05
	c-0.91-1.32-1.09-2.87-0.51-4.37c3.57-9.24,12.46-15.36,22.39-15.36c3.51,0,6.96,0.76,10.14,2.24c5.61,2.62,10.02,7.33,12.25,13.11
	c0.58,1.5,0.4,3.05-0.51,4.37C866.87,678.15,865.49,678.88,863.89,678.88L863.89,678.88z"/>
<path class="st2" d="M514.04,708.75h4.61v-27.66c0-15.8-12.8-28.59-28.6-28.59c-15.8,0-28.59,12.8-28.59,28.59s12.8,28.6,28.59,28.6
	c5.94,0,11.69-1.8,16.53-5.25c1.47-1.05,3.29-1.19,4.9-0.36c1.61,0.83,2.56,2.38,2.56,4.19V708.75L514.04,708.75z M466.07,681.09
	c0-13.25,10.73-23.99,23.99-23.99c13.25,0,23.99,10.73,23.99,23.99c0,13.25-10.73,23.99-23.99,23.99
	C476.8,705.08,466.07,694.35,466.07,681.09L466.07,681.09z"/>
<rect x="461.08" y="746.48" class="st2" width="947.17" height="4.79"/>
<text transform="matrix(1 0 0 1 908.3754 840.0306)" class="st3 st4 st5">A Boutique Hotel</text>
</svg>
